<?xml version="1.0" standalone="no"?>
<!DOCTYPE svg PUBLIC "-//W3C//DTD SVG 20010904//EN"
 "http://www.w3.org/TR/2001/REC-SVG-20010904/DTD/svg10.dtd">
<svg version="1.0" xmlns="http://www.w3.org/2000/svg"
 width="64.000000pt" height="64.000000pt" viewBox="0 0 300.000000 297.000000"
 preserveAspectRatio="xMidYMid meet">
<metadata>
Created by potrace 1.10, written by Peter Selinger 2001-2011
</metadata>
<g transform="translate(0.000000,297.000000) scale(0.050000,-0.050000)"
fill="#000000" stroke="none">
<path d="M2770 5748 c-363 -53 -481 -78 -668 -138 -811 -262 -1463 -856 -1782
-1622 -87 -211 -75 -214 65 -17 69 97 123 183 121 191 -3 8 8 25 25 39 16 13
29 35 29 49 0 14 14 31 30 37 17 7 30 22 30 34 0 34 199 314 231 327 16 6 29
21 29 34 0 32 378 398 412 398 7 0 66 36 130 80 65 44 126 80 137 80 10 0 26
12 35 26 15 24 145 94 176 94 8 0 39 18 69 39 31 22 61 34 68 27 7 -7 31 4 53
24 22 20 46 31 52 24 7 -6 61 10 120 36 59 26 137 52 173 58 36 6 110 20 165
32 188 39 449 72 480 60 11 -4 74 -9 140 -11 66 -2 147 -8 180 -15 33 -6 110
-17 170 -24 124 -14 261 -48 289 -73 10 -10 35 -17 55 -17 20 0 52 -9 71 -19
19 -10 67 -32 105 -48 39 -15 117 -47 174 -71 57 -23 124 -38 150 -34 25 5 53
10 62 11 82 7 -240 167 -523 260 -305 100 -822 163 -1053 129z"/>
<path d="M4694 5672 c-16 -42 34 -101 73 -86 55 21 43 114 -15 114 -26 0 -53
-13 -58 -28z"/>
<path d="M5081 5661 c-49 -49 -33 -117 32 -133 90 -23 142 74 76 141 -41 40
-61 39 -108 -8z"/>
<path d="M2522 5419 c-814 -163 -1491 -648 -1842 -1322 -62 -119 -93 -158
-140 -174 -101 -35 -269 -211 -333 -349 l-57 -124 0 -440 c0 -414 3 -446 45
-537 32 -70 47 -146 53 -273 36 -787 943 -1746 1918 -2028 1574 -456 3304 553
3582 2088 l13 70 -29 -60 -29 -60 -3 60 -3 60 -17 -56 c-10 -31 -28 -69 -40
-84 -13 -16 -17 -39 -9 -52 9 -14 7 -19 -5 -12 -11 7 -38 -6 -58 -29 -38 -43
-38 -43 9 -18 l47 24 -47 -66 c-25 -37 -68 -92 -95 -122 -54 -60 -50 -65 27
-35 28 10 51 15 51 9 0 -15 -48 -98 -64 -109 -25 -20 -116 -162 -116 -182 0
-25 -121 -205 -144 -215 -9 -3 -16 -19 -16 -34 0 -61 -342 -413 -590 -608
-178 -139 -470 -318 -470 -288 0 7 -14 0 -32 -14 -88 -74 -647 -232 -878 -250
-245 -18 -449 -23 -441 -10 5 7 -34 12 -85 12 -52 -1 -125 5 -164 13 -38 7
-99 19 -134 25 -35 6 -89 21 -120 33 -31 11 -56 19 -56 16 0 -6 -147 39 -200
61 -22 9 -73 31 -113 49 -40 18 -83 32 -95 32 -12 0 -22 9 -22 20 0 11 -22 20
-50 20 -27 0 -50 8 -50 18 0 9 -16 23 -35 29 -19 7 -62 31 -95 53 -33 22 -85
52 -115 66 -31 15 -50 33 -42 40 8 8 3 14 -11 14 -60 0 -542 420 -542 473 0 9
-17 28 -38 41 -21 13 -72 80 -114 150 -41 69 -82 131 -90 136 -8 6 -43 64 -79
130 -36 66 -78 127 -92 136 -15 9 -27 31 -27 49 0 18 -20 55 -45 82 l-45 49
50 -31 c100 -61 159 -66 86 -6 -87 71 -191 241 -121 198 23 -14 -2 32 -78 142
-59 87 -22 83 71 -7 54 -53 125 -107 158 -120 41 -17 63 -43 71 -84 94 -470
658 -1100 1250 -1397 1313 -658 3059 0 3497 1318 47 143 56 154 152 211 256
150 320 336 311 905 -9 535 -88 717 -372 863 -59 30 -90 64 -121 136 -24 53
-69 142 -102 198 l-60 102 72 68 c302 288 183 853 -209 986 -259 89 -594 -39
-718 -274 -18 -33 -34 -28 -191 56 -469 249 -1049 334 -1574 229z m990 -210
c101 -25 248 -72 327 -103 l145 -56 -357 -10 c-488 -14 -492 -17 -472 -413 14
-306 -18 -287 489 -287 441 0 496 10 496 87 0 85 -31 93 -349 93 -395 1 -453
24 -450 184 1 133 76 156 508 156 l371 0 0 -75 c0 -270 326 -542 623 -521
l118 9 80 -126 c43 -69 79 -131 79 -137 0 -26 -2202 -10 -2267 17 -103 44
-133 108 -133 290 0 214 19 205 -443 198 l-387 -5 -6 -255 -5 -255 -522 0
-522 0 29 45 c15 25 63 101 107 170 l79 125 146 0 c211 0 224 11 224 186 0
308 29 321 720 334 l550 10 10 125 c22 275 297 347 812 214z m1470 0 c289
-148 279 -602 -17 -733 -331 -147 -676 232 -509 558 100 192 337 271 526 175z
m-2448 -69 l-64 -99 -240 1 -240 1 109 52 c107 50 399 141 465 144 27 1 21
-18 -30 -99z m-74 -854 c140 -178 -110 -389 -308 -259 -97 63 -102 262 -7 300
89 36 273 12 315 -41z m2820 -508 c264 -119 320 -251 320 -758 0 -446 -23
-534 -171 -656 -155 -128 -104 -124 -1760 -124 l-1503 0 -67 -45 c-36 -25 -82
-72 -102 -105 -106 -177 -105 -176 -113 -412 -11 -319 -52 -298 591 -298 655
0 685 -14 685 -318 0 -200 4 -202 424 -202 468 0 539 -34 281 -137 -499 -198
-966 -229 -1486 -96 -274 70 -612 230 -494 234 14 0 193 0 399 -1 421 -2 500
21 430 126 -28 43 -42 44 -576 54 -764 14 -718 -29 -718 678 0 427 -4 493 -33
525 -36 40 -117 50 -137 17 -17 -28 -485 -23 -564 7 -281 103 -346 241 -346
733 0 516 50 640 309 763 l121 57 2210 0 c2179 -1 2211 -1 2300 -42z m-4599
-1553 c53 -38 404 -51 494 -19 40 15 45 10 45 -45 l0 -61 -270 0 c-291 0 -350
20 -350 120 0 49 17 50 81 5z m4659 7 c0 -15 -17 -49 -38 -75 l-38 -47 -1617
-10 c-889 -5 -1621 -8 -1625 -5 -5 2 27 20 70 40 72 32 194 35 1566 40 1413 4
1491 6 1560 42 90 47 122 51 122 15z m-4120 -516 c0 -113 6 -253 13 -311 7
-58 5 -105 -5 -105 -43 2 -408 540 -408 602 0 7 90 15 200 16 l200 3 0 -205z
m3900 189 c-1 -59 -337 -576 -399 -615 -9 -5 -22 20 -29 57 -59 311 -429 456
-724 283 l-94 -55 -845 0 c-579 1 -857 8 -886 23 -99 53 -89 235 16 293 56 30
2961 44 2961 14z m-748 -423 c84 -51 156 -202 140 -291 -52 -272 -422 -315
-534 -61 -109 246 166 491 394 352z m-605 -137 c-9 -19 -17 -96 -16 -170 l0
-135 -143 0 c-174 0 -236 38 -255 156 -7 43 -31 102 -54 131 l-42 53 264 0
c244 0 262 -3 246 -35z"/>
<path d="M2887 5160 c-54 -22 -79 -60 -39 -60 21 0 27 -11 18 -35 -10 -28 -4
-26 26 7 32 36 71 45 256 57 138 10 207 22 190 33 -36 22 -394 21 -451 -2z"/>
<path d="M2708 4819 c-40 -40 -62 -41 -576 -40 l-534 2 -59 -59 c-54 -54 -59
-71 -59 -199 0 -202 -42 -248 -238 -259 -157 -9 -185 -33 -62 -54 185 -31 368
39 392 150 24 111 26 220 4 220 -33 0 -8 20 36 29 56 13 177 59 188 73 20 24
155 36 520 48 381 12 459 28 454 93 -3 47 -15 47 -66 -4z"/>
<path d="M3500 4760 c-20 -13 80 -19 300 -18 196 1 310 8 280 18 -72 23 -544
23 -580 0z"/>
<path d="M1924 4629 c-79 -56 -55 -95 30 -49 140 75 696 48 745 -36 17 -30 20
-29 20 10 2 85 -84 106 -434 106 -254 0 -325 -6 -361 -31z"/>
<path d="M3460 4640 c0 -23 6 -23 320 -28 168 -2 247 -12 295 -36 63 -32 64
-32 44 7 -12 21 -44 47 -72 58 -68 26 -587 25 -587 -1z"/>
<path d="M4336 4370 c37 -72 234 -227 257 -203 6 5 -11 21 -36 34 -26 13 -91
65 -144 116 -54 51 -88 75 -77 53z"/>
<path d="M3131 4301 c-37 -59 178 -97 519 -91 355 7 381 9 417 35 27 20 -44
24 -374 19 -329 -6 -421 -1 -480 23 -40 17 -77 23 -82 14z"/>
<path d="M2890 4137 c44 -29 1324 -43 1520 -17 55 8 -257 15 -693 17 -437 2
-810 8 -830 15 -32 9 -31 7 3 -15z"/>
<path d="M1045 4129 c13 -14 658 -13 672 1 5 6 -146 10 -337 10 -191 0 -342
-5 -335 -11z"/>
<path d="M4659 5135 c-93 -47 -198 -198 -199 -286 0 -43 99 -170 132 -168 10
0 -2 17 -26 37 -46 39 -94 221 -51 195 29 -18 145 50 145 84 0 16 12 23 29 16
17 -6 38 3 47 20 10 17 24 30 31 29 48 -7 73 1 62 19 -7 12 5 26 28 32 62 17
29 67 -45 67 -35 0 -104 -20 -153 -45z"/>
<path d="M4830 4621 l-100 -12 76 -11 c47 -6 90 0 110 15 19 14 30 25 24 23
-5 -1 -55 -8 -110 -15z"/>
<path d="M2210 4240 c7 -11 43 -20 81 -20 38 0 69 9 69 20 0 11 -37 20 -81 20
-49 0 -76 -8 -69 -20z"/>
<path d="M854 3510 c-532 -203 -392 -989 177 -990 457 -1 678 554 349 874
-131 128 -363 179 -526 116z m340 -215 c209 -142 181 -457 -49 -559 -272 -121
-543 188 -393 445 91 156 300 210 442 114z"/>
<path d="M933 3250 c-8 -20 8 -35 53 -48 35 -10 53 -19 39 -20 -42 -3 -28 -42
15 -42 22 0 40 13 40 29 0 18 12 25 30 18 53 -20 33 45 -21 70 -70 32 -142 29
-156 -7z"/>
<path d="M1724 3509 c-43 -31 -44 -39 -44 -486 0 -487 3 -503 100 -503 86 0
100 33 100 229 l0 181 193 -3 193 -2 -4 -162 c-5 -188 16 -243 95 -243 100 0
103 13 103 514 l0 467 -53 20 c-113 43 -152 -17 -144 -223 l7 -178 -195 0
-195 0 0 179 c0 175 -28 241 -100 241 -6 0 -31 -14 -56 -31z"/>
<path d="M2850 3510 c-326 -115 -283 -485 69 -590 153 -45 198 -90 161 -160
-41 -77 -173 -76 -278 2 -64 47 -150 27 -171 -40 -50 -157 291 -282 488 -178
279 146 217 472 -107 558 -168 44 -226 138 -128 207 62 43 105 39 203 -18 151
-89 259 26 138 147 -95 95 -234 122 -375 72z"/>
<path d="M3540 3525 c-74 -24 -80 -64 -80 -500 0 -463 23 -551 134 -512 76 27
86 66 84 336 -5 585 -31 712 -138 676z"/>
<path d="M3801 3481 c-52 -97 21 -169 161 -158 l83 7 -4 -364 c-3 -376 6 -433
77 -451 110 -29 122 14 122 439 l0 391 93 -12 c135 -19 223 83 143 163 -46 46
-650 32 -675 -15z"/>
<path d="M4637 3487 c-21 -26 -27 -129 -27 -467 0 -338 6 -441 27 -467 43 -52
562 -49 610 4 97 107 13 163 -245 163 l-204 0 6 105 6 105 136 -7 c150 -7 214
24 214 106 0 74 -39 91 -205 91 l-157 0 6 105 6 105 182 -7 c244 -10 350 56
257 158 -49 55 -567 59 -612 6z"/>
<path d="M1588 2089 c-93 -47 -108 -101 -108 -400 l0 -269 50 0 c55 0 51 -21
57 275 2 96 11 145 27 145 13 0 28 16 35 36 9 30 31 36 111 34 120 -3 133 34
45 129 -69 74 -137 90 -217 50z"/>
<path d="M1860 1341 c0 -83 93 -99 594 -108 200 -3 375 -15 390 -25 37 -28
150 -35 165 -10 7 11 27 15 44 8 27 -10 28 -5 9 30 -38 71 -57 74 -602 84
-291 6 -546 18 -565 27 -23 12 -35 9 -35 -6z"/>
<path d="M1704 1170 c5 -6 205 -11 443 -11 422 0 517 -12 558 -69 9 -13 14
-12 15 4 1 79 -46 86 -545 86 -265 0 -477 -5 -471 -10z"/>
<path d="M3074 871 c-35 -26 -34 -29 7 -68 100 -92 268 -121 423 -72 28 9 33
3 24 -25 -10 -34 -10 -34 12 -1 12 20 31 31 41 24 22 -13 157 29 193 60 17 15
-61 19 -265 15 -287 -6 -289 -6 -340 45 -59 59 -49 57 -95 22z"/>
<path d="M2711 829 c-29 -22 -101 -29 -296 -29 -177 0 -253 -7 -244 -21 7 -12
18 -17 24 -10 7 6 34 -3 60 -21 27 -17 54 -26 60 -20 6 7 22 3 36 -9 16 -13
42 -13 76 0 33 12 56 13 63 0 7 -10 21 -19 32 -19 11 0 14 11 5 25 -12 20 -8
20 16 0 23 -18 46 -19 99 -2 37 13 80 26 95 30 23 6 23 13 0 41 -23 29 -23 32
7 21 24 -9 31 -5 23 16 -6 16 -13 29 -14 28 -2 0 -20 -13 -42 -30z"/>
<path d="M1005 1815 c5 -14 38 -25 75 -25 37 0 70 11 75 25 6 17 -17 25 -75
25 -58 0 -81 -8 -75 -25z"/>
<path d="M2193 1827 c-26 -26 -12 -44 42 -55 87 -17 1672 -23 1700 -6 33 21
544 19 572 -2 13 -9 41 -16 63 -15 22 1 56 -5 75 -14 19 -9 35 -9 35 0 0 9 50
15 110 15 61 -1 110 5 110 14 0 9 13 16 28 16 15 0 33 14 39 30 12 32 -2742
48 -2774 17z"/>
<path d="M2615 1685 c223 -3 587 -3 810 0 223 3 41 6 -405 6 -445 0 -628 -3
-405 -6z"/>
<path d="M4635 1678 c27 -35 116 -35 152 1 15 15 14 21 -2 21 -12 0 -29 -10
-36 -22 -10 -16 -20 -14 -33 5 -15 22 -21 22 -29 1 -9 -21 -17 -21 -44 0 -29
23 -30 22 -8 -6z"/>
<path d="M4115 1405 c-69 -43 -62 -65 32 -98 65 -22 76 -21 86 5 7 17 25 25
41 19 53 -20 90 39 49 77 -47 41 -138 40 -208 -3z"/>
<path d="M3424 1288 c42 -42 191 -42 233 1 29 28 18 31 -117 31 -137 0 -146
-3 -116 -32z"/>
<path d="M5384 5436 c-33 -33 -30 -106 5 -135 39 -33 90 -20 123 30 52 78 -62
171 -128 105z"/>
<path d="M5531 4889 c-71 -72 2 -176 90 -128 44 23 52 98 15 135 -33 33 -67
30 -105 -7z"/>
<path d="M5378 4448 c-6 -93 13 -165 80 -308 47 -100 210 -326 218 -302 12 35
-232 576 -289 640 -4 5 -8 -9 -9 -30z"/>
</g>
</svg>
